<svg width="121" height="130" viewBox="0 0 121 130" fill="none" xmlns="http://www.w3.org/2000/svg">
<g clip-path="url(#clip0_7_10107)">
<path d="M60.6033 99.4921C85.237 99.4921 105.207 95.7608 105.207 91.1579C105.207 86.5551 85.237 82.8237 60.6033 82.8237C35.9696 82.8237 16 86.5551 16 91.1579C16 95.7608 35.9696 99.4921 60.6033 99.4921Z" fill="#F5F5F7" fill-opacity="0.8"/>
<path fill-rule="evenodd" clip-rule="evenodd" d="M96.2855 66.6738L80.5454 47.3021C79.7901 46.3902 78.6861 45.8383 77.5236 45.8383H43.6815C42.5197 45.8383 41.4158 46.3902 40.6605 47.3021L24.921 66.6738V76.7942H96.2861V66.6738H96.2855Z" fill="#AEB8C2"/>
<path fill-rule="evenodd" clip-rule="evenodd" d="M38.2566 20.8356H82.9493C83.6473 20.8356 84.3166 21.1128 84.8102 21.6063C85.3037 22.0999 85.5809 22.7692 85.5809 23.4671V84.8777C85.5809 85.5756 85.3037 86.2449 84.8102 86.7385C84.3166 87.232 83.6473 87.5092 82.9493 87.5092H38.2566C37.5586 87.5092 36.8893 87.232 36.3958 86.7385C35.9023 86.2449 35.625 85.5756 35.625 84.8777V23.4671C35.625 22.7692 35.9023 22.0999 36.3958 21.6063C36.8893 21.1128 37.5586 20.8356 38.2566 20.8356V20.8356Z" fill="#F5F5F7"/>
<path fill-rule="evenodd" clip-rule="evenodd" d="M44.0777 27.3835H77.1283C77.4773 27.3835 77.812 27.5222 78.0587 27.7689C78.3055 28.0157 78.4441 28.3504 78.4441 28.6993V45.1184C78.4441 45.4674 78.3055 45.8021 78.0587 46.0488C77.812 46.2956 77.4773 46.4342 77.1283 46.4342H44.0777C43.7287 46.4342 43.394 46.2956 43.1472 46.0488C42.9005 45.8021 42.7619 45.4674 42.7619 45.1184V28.6993C42.7619 28.3504 42.9005 28.0157 43.1472 27.7689C43.394 27.5222 43.7287 27.3835 44.0777 27.3835ZM44.25 53.577H76.9559C77.3506 53.577 77.7291 53.7338 78.0082 54.0128C78.2873 54.2919 78.4441 54.6704 78.4441 55.0651C78.4441 55.4598 78.2873 55.8383 78.0082 56.1174C77.7291 56.3965 77.3506 56.5533 76.9559 56.5533H44.25C43.8553 56.5533 43.4768 56.3965 43.1977 56.1174C42.9186 55.8383 42.7619 55.4598 42.7619 55.0651C42.7619 54.6704 42.9186 54.2919 43.1977 54.0128C43.4768 53.7338 43.8553 53.577 44.25 53.577ZM44.25 61.3158H76.9559C77.3507 61.3158 77.7293 61.4726 78.0085 61.7518C78.2876 62.0309 78.4444 62.4095 78.4444 62.8043C78.4444 63.199 78.2876 63.5776 78.0085 63.8568C77.7293 64.1359 77.3507 64.2928 76.9559 64.2928H44.25C43.8552 64.2928 43.4766 64.1359 43.1975 63.8568C42.9184 63.5776 42.7615 63.199 42.7615 62.8043C42.7615 62.4095 42.9184 62.0309 43.1975 61.7518C43.4766 61.4726 43.8552 61.3158 44.25 61.3158ZM96.1402 89.9355C95.6303 91.9559 93.8395 93.4618 91.7092 93.4618H29.4967C27.3665 93.4618 25.5757 91.9553 25.0665 89.9355C24.9693 89.5505 24.9203 89.1549 24.9204 88.7579V66.6743H42.2349C44.1474 66.6743 45.6888 68.2849 45.6888 70.2401V70.2664C45.6888 72.221 47.248 73.7993 49.1605 73.7993H72.0454C73.9579 73.7993 75.5171 72.2066 75.5171 70.2513V70.2434C75.5171 68.2881 77.0586 66.6737 78.9711 66.6737H96.2855V88.7585C96.2855 89.1645 96.2349 89.5585 96.1402 89.9355Z" fill="#DCE0E6"/>
<path fill-rule="evenodd" clip-rule="evenodd" d="M98.3164 21.9026L93.823 23.6461C93.7075 23.6909 93.5818 23.7023 93.4602 23.6789C93.3385 23.6555 93.226 23.5982 93.1355 23.5137C93.045 23.4292 92.9802 23.3208 92.9485 23.2011C92.9168 23.0813 92.9196 22.9551 92.9565 22.8368L94.2309 18.7533C92.5276 16.8164 91.5276 14.4546 91.5276 11.9059C91.5276 5.33026 98.1842 0 106.396 0C114.606 0 121.263 5.33026 121.263 11.9059C121.263 18.4816 114.607 23.8118 106.395 23.8118C103.416 23.8118 100.643 23.1105 98.3164 21.9026Z" fill="#DCE0E6"/>
<path d="M112.253 14.0559C113.288 14.0559 114.127 13.2267 114.127 12.2039C114.127 11.1811 113.288 10.3519 112.253 10.3519C111.217 10.3519 110.378 11.1811 110.378 12.2039C110.378 13.2267 111.217 14.0559 112.253 14.0559Z" fill="white"/>
<path fill-rule="evenodd" clip-rule="evenodd" d="M102.413 13.8243H98.6644L100.571 10.5835L102.413 13.8243ZM104.756 10.5835H108.035V13.8243H104.756V10.5835Z" fill="white"/>
<path d="M44.0869 114.047V124H42.7607L37.75 116.323V124H36.4307V114.047H37.75L42.7812 121.744V114.047H44.0869ZM45.8984 120.384V120.227C45.8984 119.693 45.9759 119.199 46.1309 118.743C46.2858 118.283 46.5091 117.884 46.8008 117.547C47.0924 117.205 47.4456 116.941 47.8604 116.754C48.2751 116.562 48.7399 116.467 49.2549 116.467C49.7744 116.467 50.2415 116.562 50.6562 116.754C51.0755 116.941 51.431 117.205 51.7227 117.547C52.0189 117.884 52.2445 118.283 52.3994 118.743C52.5544 119.199 52.6318 119.693 52.6318 120.227V120.384C52.6318 120.917 52.5544 121.411 52.3994 121.867C52.2445 122.323 52.0189 122.722 51.7227 123.063C51.431 123.401 51.0778 123.665 50.6631 123.856C50.2529 124.043 49.7881 124.137 49.2686 124.137C48.749 124.137 48.2819 124.043 47.8672 123.856C47.4525 123.665 47.097 123.401 46.8008 123.063C46.5091 122.722 46.2858 122.323 46.1309 121.867C45.9759 121.411 45.8984 120.917 45.8984 120.384ZM47.1631 120.227V120.384C47.1631 120.753 47.2064 121.102 47.293 121.43C47.3796 121.753 47.5094 122.04 47.6826 122.291C47.8604 122.542 48.0814 122.74 48.3457 122.886C48.61 123.027 48.9176 123.098 49.2686 123.098C49.6149 123.098 49.918 123.027 50.1777 122.886C50.4421 122.74 50.6608 122.542 50.834 122.291C51.0072 122.04 51.137 121.753 51.2236 121.43C51.3148 121.102 51.3604 120.753 51.3604 120.384V120.227C51.3604 119.862 51.3148 119.518 51.2236 119.194C51.137 118.866 51.0049 118.577 50.8271 118.326C50.654 118.071 50.4352 117.87 50.1709 117.725C49.9111 117.579 49.6058 117.506 49.2549 117.506C48.9085 117.506 48.6032 117.579 48.3389 117.725C48.0791 117.87 47.8604 118.071 47.6826 118.326C47.5094 118.577 47.3796 118.866 47.293 119.194C47.2064 119.518 47.1631 119.862 47.1631 120.227ZM60.5752 124H58.4971L58.5107 122.927H60.5752C61.2861 122.927 61.8786 122.779 62.3525 122.482C62.8265 122.182 63.182 121.762 63.4189 121.225C63.6605 120.682 63.7812 120.049 63.7812 119.324V118.716C63.7812 118.146 63.7129 117.64 63.5762 117.198C63.4395 116.752 63.2389 116.376 62.9746 116.07C62.7103 115.76 62.3867 115.526 62.0039 115.366C61.6257 115.207 61.1904 115.127 60.6982 115.127H58.4561V114.047H60.6982C61.3499 114.047 61.9447 114.156 62.4824 114.375C63.0202 114.589 63.4827 114.901 63.8701 115.312C64.262 115.717 64.5628 116.209 64.7725 116.788C64.9821 117.362 65.0869 118.009 65.0869 118.729V119.324C65.0869 120.044 64.9821 120.694 64.7725 121.272C64.5628 121.847 64.2598 122.337 63.8633 122.742C63.4714 123.148 62.9974 123.46 62.4414 123.679C61.89 123.893 61.2679 124 60.5752 124ZM59.2012 114.047V124H57.8818V114.047H59.2012ZM71.2393 122.735V118.928C71.2393 118.636 71.18 118.383 71.0615 118.169C70.9476 117.95 70.7744 117.782 70.542 117.663C70.3096 117.545 70.0225 117.485 69.6807 117.485C69.3617 117.485 69.0814 117.54 68.8398 117.649C68.6029 117.759 68.416 117.902 68.2793 118.08C68.1471 118.258 68.0811 118.449 68.0811 118.654H66.8164C66.8164 118.39 66.8848 118.128 67.0215 117.868C67.1582 117.608 67.3542 117.374 67.6094 117.164C67.8691 116.95 68.179 116.781 68.5391 116.658C68.9036 116.531 69.3092 116.467 69.7559 116.467C70.2936 116.467 70.7676 116.558 71.1777 116.74C71.5924 116.923 71.916 117.198 72.1484 117.567C72.3854 117.932 72.5039 118.39 72.5039 118.941V122.387C72.5039 122.633 72.5244 122.895 72.5654 123.173C72.611 123.451 72.6771 123.69 72.7637 123.891V124H71.4443C71.3805 123.854 71.3304 123.66 71.2939 123.419C71.2575 123.173 71.2393 122.945 71.2393 122.735ZM71.458 119.516L71.4717 120.404H70.1934C69.8333 120.404 69.512 120.434 69.2295 120.493C68.9469 120.548 68.71 120.632 68.5186 120.746C68.3271 120.86 68.1813 121.004 68.0811 121.177C67.9808 121.345 67.9307 121.544 67.9307 121.771C67.9307 122.004 67.9831 122.216 68.0879 122.407C68.1927 122.599 68.3499 122.751 68.5596 122.865C68.7738 122.975 69.0358 123.029 69.3457 123.029C69.7331 123.029 70.0749 122.947 70.3711 122.783C70.6673 122.619 70.902 122.419 71.0752 122.182C71.2529 121.945 71.3486 121.715 71.3623 121.491L71.9023 122.1C71.8704 122.291 71.7839 122.503 71.6426 122.735C71.5013 122.968 71.3122 123.191 71.0752 123.405C70.8428 123.615 70.5648 123.79 70.2412 123.932C69.9222 124.068 69.5622 124.137 69.1611 124.137C68.6598 124.137 68.2201 124.039 67.8418 123.843C67.4681 123.647 67.1764 123.385 66.9668 123.057C66.7617 122.724 66.6592 122.353 66.6592 121.942C66.6592 121.546 66.7367 121.197 66.8916 120.896C67.0465 120.591 67.2699 120.338 67.5615 120.138C67.8532 119.933 68.2041 119.778 68.6143 119.673C69.0244 119.568 69.4824 119.516 69.9883 119.516H71.458ZM77.5898 116.604V117.574H73.5908V116.604H77.5898ZM74.9443 114.806H76.209V122.168C76.209 122.419 76.2477 122.608 76.3252 122.735C76.4027 122.863 76.5029 122.947 76.626 122.988C76.749 123.029 76.8812 123.05 77.0225 123.05C77.1273 123.05 77.2367 123.041 77.3506 123.022C77.4691 123 77.5579 122.981 77.6172 122.968L77.624 124C77.5238 124.032 77.3916 124.062 77.2275 124.089C77.068 124.121 76.8743 124.137 76.6465 124.137C76.3366 124.137 76.0518 124.075 75.792 123.952C75.5322 123.829 75.3249 123.624 75.1699 123.337C75.0195 123.045 74.9443 122.653 74.9443 122.161V114.806ZM83.4346 122.735V118.928C83.4346 118.636 83.3753 118.383 83.2568 118.169C83.1429 117.95 82.9697 117.782 82.7373 117.663C82.5049 117.545 82.2178 117.485 81.876 117.485C81.557 117.485 81.2767 117.54 81.0352 117.649C80.7982 117.759 80.6113 117.902 80.4746 118.08C80.3424 118.258 80.2764 118.449 80.2764 118.654H79.0117C79.0117 118.39 79.0801 118.128 79.2168 117.868C79.3535 117.608 79.5495 117.374 79.8047 117.164C80.0645 116.95 80.3743 116.781 80.7344 116.658C81.099 116.531 81.5046 116.467 81.9512 116.467C82.4889 116.467 82.9629 116.558 83.373 116.74C83.7878 116.923 84.1113 117.198 84.3438 117.567C84.5807 117.932 84.6992 118.39 84.6992 118.941V122.387C84.6992 122.633 84.7197 122.895 84.7607 123.173C84.8063 123.451 84.8724 123.69 84.959 123.891V124H83.6396C83.5758 123.854 83.5257 123.66 83.4893 123.419C83.4528 123.173 83.4346 122.945 83.4346 122.735ZM83.6533 119.516L83.667 120.404H82.3887C82.0286 120.404 81.7074 120.434 81.4248 120.493C81.1423 120.548 80.9053 120.632 80.7139 120.746C80.5225 120.86 80.3766 121.004 80.2764 121.177C80.1761 121.345 80.126 121.544 80.126 121.771C80.126 122.004 80.1784 122.216 80.2832 122.407C80.388 122.599 80.5452 122.751 80.7549 122.865C80.9691 122.975 81.2311 123.029 81.541 123.029C81.9284 123.029 82.2702 122.947 82.5664 122.783C82.8626 122.619 83.0973 122.419 83.2705 122.182C83.4482 121.945 83.5439 121.715 83.5576 121.491L84.0977 122.1C84.0658 122.291 83.9792 122.503 83.8379 122.735C83.6966 122.968 83.5075 123.191 83.2705 123.405C83.0381 123.615 82.7601 123.79 82.4365 123.932C82.1175 124.068 81.7575 124.137 81.3564 124.137C80.8551 124.137 80.4154 124.039 80.0371 123.843C79.6634 123.647 79.3717 123.385 79.1621 123.057C78.957 122.724 78.8545 122.353 78.8545 121.942C78.8545 121.546 78.932 121.197 79.0869 120.896C79.2419 120.591 79.4652 120.338 79.7568 120.138C80.0485 119.933 80.3994 119.778 80.8096 119.673C81.2197 119.568 81.6777 119.516 82.1836 119.516H83.6533Z" fill="black" fill-opacity="0.85"/>
</g>
<defs>
<clipPath id="clip0_7_10107">
<rect width="121" height="130" fill="white"/>
</clipPath>
</defs>
</svg>
